<mxfile host="app.diagrams.net" modified="2020-11-24T04:38:34.281Z" agent="5.0 (Windows NT 10.0; Win64; x64) AppleWebKit/537.36 (KHTML, like Gecko) Chrome/86.0.4240.193 Safari/537.36" etag="5EMiil9arVUfFVyDlQHC" version="13.10.1" type="github">
  <diagram id="cJOiEzslXFF_7qBp-_5h" name="Page-1">
    <mxGraphModel dx="1209" dy="1727" grid="1" gridSize="10" guides="1" tooltips="1" connect="1" arrows="1" fold="1" page="1" pageScale="1" pageWidth="850" pageHeight="1100" math="0" shadow="0">
      <root>
        <mxCell id="0" />
        <mxCell id="1" parent="0" />
        <mxCell id="_r1k7gh4F4Ipt6apbIus-1" value="ilan.regions" style="shape=table;startSize=30;container=1;collapsible=1;childLayout=tableLayout;fixedRows=1;rowLines=0;fontStyle=1;align=center;resizeLast=1;" vertex="1" parent="1">
          <mxGeometry x="330" y="200" width="180" height="100" as="geometry" />
        </mxCell>
        <mxCell id="_r1k7gh4F4Ipt6apbIus-2" value="" style="shape=partialRectangle;collapsible=0;dropTarget=0;pointerEvents=0;fillColor=none;top=0;left=0;bottom=0;right=0;points=[[0,0.5],[1,0.5]];portConstraint=eastwest;" vertex="1" parent="_r1k7gh4F4Ipt6apbIus-1">
          <mxGeometry y="30" width="180" height="30" as="geometry" />
        </mxCell>
        <mxCell id="_r1k7gh4F4Ipt6apbIus-3" value="PK" style="shape=partialRectangle;connectable=0;fillColor=none;top=0;left=0;bottom=0;right=0;fontStyle=1;overflow=hidden;" vertex="1" parent="_r1k7gh4F4Ipt6apbIus-2">
          <mxGeometry width="20" height="30" as="geometry" />
        </mxCell>
        <mxCell id="_r1k7gh4F4Ipt6apbIus-4" value="region_id" style="shape=partialRectangle;connectable=0;fillColor=none;top=0;left=0;bottom=0;right=0;align=left;spacingLeft=6;fontStyle=5;overflow=hidden;" vertex="1" parent="_r1k7gh4F4Ipt6apbIus-2">
          <mxGeometry x="20" width="160" height="30" as="geometry" />
        </mxCell>
        <mxCell id="_r1k7gh4F4Ipt6apbIus-5" value="" style="shape=partialRectangle;collapsible=0;dropTarget=0;pointerEvents=0;fillColor=none;top=0;left=0;bottom=1;right=0;points=[[0,0.5],[1,0.5]];portConstraint=eastwest;" vertex="1" parent="_r1k7gh4F4Ipt6apbIus-1">
          <mxGeometry y="60" width="180" height="30" as="geometry" />
        </mxCell>
        <mxCell id="_r1k7gh4F4Ipt6apbIus-6" value="FK" style="shape=partialRectangle;connectable=0;fillColor=none;top=0;left=0;bottom=0;right=0;fontStyle=1;overflow=hidden;" vertex="1" parent="_r1k7gh4F4Ipt6apbIus-5">
          <mxGeometry width="20" height="30" as="geometry" />
        </mxCell>
        <mxCell id="_r1k7gh4F4Ipt6apbIus-7" value="region_name" style="shape=partialRectangle;connectable=0;fillColor=none;top=0;left=0;bottom=0;right=0;align=left;spacingLeft=6;fontStyle=5;overflow=hidden;" vertex="1" parent="_r1k7gh4F4Ipt6apbIus-5">
          <mxGeometry x="20" width="160" height="30" as="geometry" />
        </mxCell>
        <mxCell id="_r1k7gh4F4Ipt6apbIus-107" style="edgeStyle=orthogonalEdgeStyle;rounded=0;orthogonalLoop=1;jettySize=auto;html=1;exitX=0.5;exitY=1;exitDx=0;exitDy=0;entryX=0.517;entryY=0.985;entryDx=0;entryDy=0;entryPerimeter=0;" edge="1" parent="_r1k7gh4F4Ipt6apbIus-1" source="_r1k7gh4F4Ipt6apbIus-1" target="_r1k7gh4F4Ipt6apbIus-5">
          <mxGeometry relative="1" as="geometry" />
        </mxCell>
        <mxCell id="_r1k7gh4F4Ipt6apbIus-14" value="ilan.countries" style="shape=table;startSize=30;container=1;collapsible=1;childLayout=tableLayout;fixedRows=1;rowLines=0;fontStyle=1;align=center;resizeLast=1;" vertex="1" parent="1">
          <mxGeometry x="560" y="-30" width="180" height="180" as="geometry" />
        </mxCell>
        <mxCell id="_r1k7gh4F4Ipt6apbIus-15" value="" style="shape=partialRectangle;collapsible=0;dropTarget=0;pointerEvents=0;fillColor=none;top=0;left=0;bottom=0;right=0;points=[[0,0.5],[1,0.5]];portConstraint=eastwest;" vertex="1" parent="_r1k7gh4F4Ipt6apbIus-14">
          <mxGeometry y="30" width="180" height="30" as="geometry" />
        </mxCell>
        <mxCell id="_r1k7gh4F4Ipt6apbIus-16" value="PK" style="shape=partialRectangle;connectable=0;fillColor=none;top=0;left=0;bottom=0;right=0;fontStyle=1;overflow=hidden;" vertex="1" parent="_r1k7gh4F4Ipt6apbIus-15">
          <mxGeometry width="60" height="30" as="geometry" />
        </mxCell>
        <mxCell id="_r1k7gh4F4Ipt6apbIus-17" value="country_name" style="shape=partialRectangle;connectable=0;fillColor=none;top=0;left=0;bottom=0;right=0;align=left;spacingLeft=6;fontStyle=5;overflow=hidden;" vertex="1" parent="_r1k7gh4F4Ipt6apbIus-15">
          <mxGeometry x="60" width="120" height="30" as="geometry" />
        </mxCell>
        <mxCell id="_r1k7gh4F4Ipt6apbIus-21" value="" style="shape=partialRectangle;collapsible=0;dropTarget=0;pointerEvents=0;fillColor=none;top=0;left=0;bottom=0;right=0;points=[[0,0.5],[1,0.5]];portConstraint=eastwest;" vertex="1" parent="_r1k7gh4F4Ipt6apbIus-14">
          <mxGeometry y="60" width="180" height="30" as="geometry" />
        </mxCell>
        <mxCell id="_r1k7gh4F4Ipt6apbIus-22" value="" style="shape=partialRectangle;connectable=0;fillColor=none;top=0;left=0;bottom=0;right=0;editable=1;overflow=hidden;" vertex="1" parent="_r1k7gh4F4Ipt6apbIus-21">
          <mxGeometry width="60" height="30" as="geometry" />
        </mxCell>
        <mxCell id="_r1k7gh4F4Ipt6apbIus-23" value="region_id" style="shape=partialRectangle;connectable=0;fillColor=none;top=0;left=0;bottom=0;right=0;align=left;spacingLeft=6;overflow=hidden;fontStyle=5" vertex="1" parent="_r1k7gh4F4Ipt6apbIus-21">
          <mxGeometry x="60" width="120" height="30" as="geometry" />
        </mxCell>
        <mxCell id="_r1k7gh4F4Ipt6apbIus-18" value="" style="shape=partialRectangle;collapsible=0;dropTarget=0;pointerEvents=0;fillColor=none;top=0;left=0;bottom=1;right=0;points=[[0,0.5],[1,0.5]];portConstraint=eastwest;" vertex="1" parent="_r1k7gh4F4Ipt6apbIus-14">
          <mxGeometry y="90" width="180" height="90" as="geometry" />
        </mxCell>
        <mxCell id="_r1k7gh4F4Ipt6apbIus-19" value="FK" style="shape=partialRectangle;connectable=0;fillColor=none;top=0;left=0;bottom=0;right=0;fontStyle=1;overflow=hidden;" vertex="1" parent="_r1k7gh4F4Ipt6apbIus-18">
          <mxGeometry width="60" height="90" as="geometry" />
        </mxCell>
        <mxCell id="_r1k7gh4F4Ipt6apbIus-20" value="country_id" style="shape=partialRectangle;connectable=0;fillColor=none;top=0;left=0;bottom=0;right=0;align=left;spacingLeft=6;fontStyle=5;overflow=hidden;" vertex="1" parent="_r1k7gh4F4Ipt6apbIus-18">
          <mxGeometry x="60" width="120" height="90" as="geometry" />
        </mxCell>
        <mxCell id="_r1k7gh4F4Ipt6apbIus-27" value="ilan.locations" style="shape=table;startSize=30;container=1;collapsible=1;childLayout=tableLayout;fixedRows=1;rowLines=0;fontStyle=1;align=center;resizeLast=1;" vertex="1" parent="1">
          <mxGeometry x="570" y="-290" width="180" height="150" as="geometry" />
        </mxCell>
        <mxCell id="_r1k7gh4F4Ipt6apbIus-28" value="" style="shape=partialRectangle;collapsible=0;dropTarget=0;pointerEvents=0;fillColor=none;top=0;left=0;bottom=0;right=0;points=[[0,0.5],[1,0.5]];portConstraint=eastwest;" vertex="1" parent="_r1k7gh4F4Ipt6apbIus-27">
          <mxGeometry y="30" width="180" height="90" as="geometry" />
        </mxCell>
        <mxCell id="_r1k7gh4F4Ipt6apbIus-29" value="PK" style="shape=partialRectangle;connectable=0;fillColor=none;top=0;left=0;bottom=0;right=0;fontStyle=1;overflow=hidden;" vertex="1" parent="_r1k7gh4F4Ipt6apbIus-28">
          <mxGeometry width="60" height="90" as="geometry" />
        </mxCell>
        <mxCell id="_r1k7gh4F4Ipt6apbIus-30" value="&#xa;street_address&#xa;postal_code&#xa;city&#xa;state_province&#xa;" style="shape=partialRectangle;connectable=0;fillColor=none;top=0;left=0;bottom=0;right=0;align=left;spacingLeft=6;fontStyle=5;overflow=hidden;" vertex="1" parent="_r1k7gh4F4Ipt6apbIus-28">
          <mxGeometry x="60" width="120" height="90" as="geometry" />
        </mxCell>
        <mxCell id="_r1k7gh4F4Ipt6apbIus-31" value="" style="shape=partialRectangle;collapsible=0;dropTarget=0;pointerEvents=0;fillColor=none;top=0;left=0;bottom=1;right=0;points=[[0,0.5],[1,0.5]];portConstraint=eastwest;" vertex="1" parent="_r1k7gh4F4Ipt6apbIus-27">
          <mxGeometry y="120" width="180" height="30" as="geometry" />
        </mxCell>
        <mxCell id="_r1k7gh4F4Ipt6apbIus-32" value="FK" style="shape=partialRectangle;connectable=0;fillColor=none;top=0;left=0;bottom=0;right=0;fontStyle=1;overflow=hidden;" vertex="1" parent="_r1k7gh4F4Ipt6apbIus-31">
          <mxGeometry width="60" height="30" as="geometry" />
        </mxCell>
        <mxCell id="_r1k7gh4F4Ipt6apbIus-33" value="location_id&#xa;country_id" style="shape=partialRectangle;connectable=0;fillColor=none;top=0;left=0;bottom=0;right=0;align=left;spacingLeft=6;fontStyle=5;overflow=hidden;" vertex="1" parent="_r1k7gh4F4Ipt6apbIus-31">
          <mxGeometry x="60" width="120" height="30" as="geometry" />
        </mxCell>
        <mxCell id="_r1k7gh4F4Ipt6apbIus-40" value="ilan.departments" style="shape=table;startSize=20;container=1;collapsible=1;childLayout=tableLayout;fixedRows=1;rowLines=0;fontStyle=1;align=center;resizeLast=1;" vertex="1" parent="1">
          <mxGeometry x="300" y="-530" width="180" height="229.99999999999977" as="geometry" />
        </mxCell>
        <mxCell id="_r1k7gh4F4Ipt6apbIus-41" value="" style="shape=partialRectangle;collapsible=0;dropTarget=0;pointerEvents=0;fillColor=none;top=0;left=0;bottom=0;right=0;points=[[0,0.5],[1,0.5]];portConstraint=eastwest;" vertex="1" parent="_r1k7gh4F4Ipt6apbIus-40">
          <mxGeometry y="20" width="180" height="140" as="geometry" />
        </mxCell>
        <mxCell id="_r1k7gh4F4Ipt6apbIus-42" value="PK" style="shape=partialRectangle;connectable=0;fillColor=none;top=0;left=0;bottom=0;right=0;fontStyle=1;overflow=hidden;" vertex="1" parent="_r1k7gh4F4Ipt6apbIus-41">
          <mxGeometry width="60" height="140" as="geometry" />
        </mxCell>
        <mxCell id="_r1k7gh4F4Ipt6apbIus-43" value="&#xa;department_name&#xa;manager_id" style="shape=partialRectangle;connectable=0;fillColor=none;top=0;left=0;bottom=0;right=0;align=left;spacingLeft=6;fontStyle=5;overflow=hidden;" vertex="1" parent="_r1k7gh4F4Ipt6apbIus-41">
          <mxGeometry x="60" width="120" height="140" as="geometry" />
        </mxCell>
        <mxCell id="_r1k7gh4F4Ipt6apbIus-47" value="" style="shape=partialRectangle;collapsible=0;dropTarget=0;pointerEvents=0;fillColor=none;top=0;left=0;bottom=0;right=0;points=[[0,0.5],[1,0.5]];portConstraint=eastwest;" vertex="1" parent="_r1k7gh4F4Ipt6apbIus-40">
          <mxGeometry y="160" width="180" height="30" as="geometry" />
        </mxCell>
        <mxCell id="_r1k7gh4F4Ipt6apbIus-48" value="FK" style="shape=partialRectangle;connectable=0;fillColor=none;top=0;left=0;bottom=0;right=0;editable=1;overflow=hidden;" vertex="1" parent="_r1k7gh4F4Ipt6apbIus-47">
          <mxGeometry width="60" height="30" as="geometry" />
        </mxCell>
        <mxCell id="_r1k7gh4F4Ipt6apbIus-49" value="department_id&#xa;location_id" style="shape=partialRectangle;connectable=0;fillColor=none;top=0;left=0;bottom=0;right=0;align=left;spacingLeft=6;overflow=hidden;fontStyle=5" vertex="1" parent="_r1k7gh4F4Ipt6apbIus-47">
          <mxGeometry x="60" width="120" height="30" as="geometry" />
        </mxCell>
        <mxCell id="_r1k7gh4F4Ipt6apbIus-50" value="" style="shape=partialRectangle;collapsible=0;dropTarget=0;pointerEvents=0;fillColor=none;top=0;left=0;bottom=0;right=0;points=[[0,0.5],[1,0.5]];portConstraint=eastwest;" vertex="1" parent="_r1k7gh4F4Ipt6apbIus-40">
          <mxGeometry y="190" width="180" height="20" as="geometry" />
        </mxCell>
        <mxCell id="_r1k7gh4F4Ipt6apbIus-51" value="" style="shape=partialRectangle;connectable=0;fillColor=none;top=0;left=0;bottom=0;right=0;editable=1;overflow=hidden;" vertex="1" parent="_r1k7gh4F4Ipt6apbIus-50">
          <mxGeometry width="60" height="20" as="geometry" />
        </mxCell>
        <mxCell id="_r1k7gh4F4Ipt6apbIus-52" value="" style="shape=partialRectangle;connectable=0;fillColor=none;top=0;left=0;bottom=0;right=0;align=left;spacingLeft=6;overflow=hidden;" vertex="1" parent="_r1k7gh4F4Ipt6apbIus-50">
          <mxGeometry x="60" width="120" height="20" as="geometry" />
        </mxCell>
        <mxCell id="_r1k7gh4F4Ipt6apbIus-53" value="ilan.employees" style="shape=table;startSize=30;container=1;collapsible=1;childLayout=tableLayout;fixedRows=1;rowLines=0;fontStyle=1;align=center;resizeLast=1;" vertex="1" parent="1">
          <mxGeometry x="290" y="-190" width="180" height="270" as="geometry" />
        </mxCell>
        <mxCell id="_r1k7gh4F4Ipt6apbIus-54" value="" style="shape=partialRectangle;collapsible=0;dropTarget=0;pointerEvents=0;fillColor=none;top=0;left=0;bottom=0;right=0;points=[[0,0.5],[1,0.5]];portConstraint=eastwest;" vertex="1" parent="_r1k7gh4F4Ipt6apbIus-53">
          <mxGeometry y="30" width="180" height="100" as="geometry" />
        </mxCell>
        <mxCell id="_r1k7gh4F4Ipt6apbIus-55" value="PK" style="shape=partialRectangle;connectable=0;fillColor=none;top=0;left=0;bottom=0;right=0;fontStyle=1;overflow=hidden;" vertex="1" parent="_r1k7gh4F4Ipt6apbIus-54">
          <mxGeometry width="50" height="100" as="geometry" />
        </mxCell>
        <mxCell id="_r1k7gh4F4Ipt6apbIus-56" value="&#xa;first_name&#xa;last_name&#xa;email&#xa;phone_number&#xa;hire_date&#xa;salary&#xa;commission_pct&#xa;manager_id&#xa;" style="shape=partialRectangle;connectable=0;fillColor=none;top=0;left=0;bottom=0;right=0;align=left;spacingLeft=6;fontStyle=5;overflow=hidden;" vertex="1" parent="_r1k7gh4F4Ipt6apbIus-54">
          <mxGeometry x="50" width="130" height="100" as="geometry" />
        </mxCell>
        <mxCell id="_r1k7gh4F4Ipt6apbIus-60" value="" style="shape=partialRectangle;collapsible=0;dropTarget=0;pointerEvents=0;fillColor=none;top=0;left=0;bottom=0;right=0;points=[[0,0.5],[1,0.5]];portConstraint=eastwest;" vertex="1" parent="_r1k7gh4F4Ipt6apbIus-53">
          <mxGeometry y="130" width="180" height="30" as="geometry" />
        </mxCell>
        <mxCell id="_r1k7gh4F4Ipt6apbIus-61" value="" style="shape=partialRectangle;connectable=0;fillColor=none;top=0;left=0;bottom=0;right=0;editable=1;overflow=hidden;" vertex="1" parent="_r1k7gh4F4Ipt6apbIus-60">
          <mxGeometry width="50" height="30" as="geometry" />
        </mxCell>
        <mxCell id="_r1k7gh4F4Ipt6apbIus-62" value="" style="shape=partialRectangle;connectable=0;fillColor=none;top=0;left=0;bottom=0;right=0;align=left;spacingLeft=6;overflow=hidden;" vertex="1" parent="_r1k7gh4F4Ipt6apbIus-60">
          <mxGeometry x="50" width="130" height="30" as="geometry" />
        </mxCell>
        <mxCell id="_r1k7gh4F4Ipt6apbIus-57" value="" style="shape=partialRectangle;collapsible=0;dropTarget=0;pointerEvents=0;fillColor=none;top=0;left=0;bottom=1;right=0;points=[[0,0.5],[1,0.5]];portConstraint=eastwest;" vertex="1" parent="_r1k7gh4F4Ipt6apbIus-53">
          <mxGeometry y="160" width="180" height="110" as="geometry" />
        </mxCell>
        <mxCell id="_r1k7gh4F4Ipt6apbIus-58" value="FK" style="shape=partialRectangle;connectable=0;fillColor=none;top=0;left=0;bottom=0;right=0;fontStyle=1;overflow=hidden;" vertex="1" parent="_r1k7gh4F4Ipt6apbIus-57">
          <mxGeometry width="50" height="110" as="geometry" />
        </mxCell>
        <mxCell id="_r1k7gh4F4Ipt6apbIus-59" value="job_id&#xa;department_id&#xa;employee_id" style="shape=partialRectangle;connectable=0;fillColor=none;top=0;left=0;bottom=0;right=0;align=left;spacingLeft=6;fontStyle=5;overflow=hidden;" vertex="1" parent="_r1k7gh4F4Ipt6apbIus-57">
          <mxGeometry x="50" width="130" height="110" as="geometry" />
        </mxCell>
        <mxCell id="_r1k7gh4F4Ipt6apbIus-66" value="ilan.job_history" style="shape=table;startSize=30;container=1;collapsible=1;childLayout=tableLayout;fixedRows=1;rowLines=0;fontStyle=1;align=center;resizeLast=1;" vertex="1" parent="1">
          <mxGeometry x="10" y="-330" width="180" height="190" as="geometry" />
        </mxCell>
        <mxCell id="_r1k7gh4F4Ipt6apbIus-67" value="" style="shape=partialRectangle;collapsible=0;dropTarget=0;pointerEvents=0;fillColor=none;top=0;left=0;bottom=0;right=0;points=[[0,0.5],[1,0.5]];portConstraint=eastwest;" vertex="1" parent="_r1k7gh4F4Ipt6apbIus-66">
          <mxGeometry y="30" width="180" height="90" as="geometry" />
        </mxCell>
        <mxCell id="_r1k7gh4F4Ipt6apbIus-68" value="PK" style="shape=partialRectangle;connectable=0;fillColor=none;top=0;left=0;bottom=0;right=0;fontStyle=1;overflow=hidden;" vertex="1" parent="_r1k7gh4F4Ipt6apbIus-67">
          <mxGeometry width="60" height="90" as="geometry" />
        </mxCell>
        <mxCell id="_r1k7gh4F4Ipt6apbIus-69" value="&#xa;start_date&#xa;end_date&#xa;" style="shape=partialRectangle;connectable=0;fillColor=none;top=0;left=0;bottom=0;right=0;align=left;spacingLeft=6;fontStyle=5;overflow=hidden;" vertex="1" parent="_r1k7gh4F4Ipt6apbIus-67">
          <mxGeometry x="60" width="120" height="90" as="geometry" />
        </mxCell>
        <mxCell id="_r1k7gh4F4Ipt6apbIus-73" value="" style="shape=partialRectangle;collapsible=0;dropTarget=0;pointerEvents=0;fillColor=none;top=0;left=0;bottom=0;right=0;points=[[0,0.5],[1,0.5]];portConstraint=eastwest;" vertex="1" parent="_r1k7gh4F4Ipt6apbIus-66">
          <mxGeometry y="120" width="180" height="30" as="geometry" />
        </mxCell>
        <mxCell id="_r1k7gh4F4Ipt6apbIus-74" value="FK" style="shape=partialRectangle;connectable=0;fillColor=none;top=0;left=0;bottom=0;right=0;editable=1;overflow=hidden;" vertex="1" parent="_r1k7gh4F4Ipt6apbIus-73">
          <mxGeometry width="60" height="30" as="geometry" />
        </mxCell>
        <mxCell id="_r1k7gh4F4Ipt6apbIus-75" value="department_id&#xa;job_id&#xa;employee_id" style="shape=partialRectangle;connectable=0;fillColor=none;top=0;left=0;bottom=0;right=0;align=left;spacingLeft=6;overflow=hidden;fontStyle=5" vertex="1" parent="_r1k7gh4F4Ipt6apbIus-73">
          <mxGeometry x="60" width="120" height="30" as="geometry" />
        </mxCell>
        <mxCell id="_r1k7gh4F4Ipt6apbIus-76" value="" style="shape=partialRectangle;collapsible=0;dropTarget=0;pointerEvents=0;fillColor=none;top=0;left=0;bottom=0;right=0;points=[[0,0.5],[1,0.5]];portConstraint=eastwest;" vertex="1" parent="_r1k7gh4F4Ipt6apbIus-66">
          <mxGeometry y="150" width="180" height="30" as="geometry" />
        </mxCell>
        <mxCell id="_r1k7gh4F4Ipt6apbIus-77" value="" style="shape=partialRectangle;connectable=0;fillColor=none;top=0;left=0;bottom=0;right=0;editable=1;overflow=hidden;" vertex="1" parent="_r1k7gh4F4Ipt6apbIus-76">
          <mxGeometry width="60" height="30" as="geometry" />
        </mxCell>
        <mxCell id="_r1k7gh4F4Ipt6apbIus-78" value="" style="shape=partialRectangle;connectable=0;fillColor=none;top=0;left=0;bottom=0;right=0;align=left;spacingLeft=6;overflow=hidden;" vertex="1" parent="_r1k7gh4F4Ipt6apbIus-76">
          <mxGeometry x="60" width="120" height="30" as="geometry" />
        </mxCell>
        <mxCell id="_r1k7gh4F4Ipt6apbIus-79" value="ilan.jobs" style="shape=table;startSize=30;container=1;collapsible=1;childLayout=tableLayout;fixedRows=1;rowLines=0;fontStyle=1;align=center;resizeLast=1;" vertex="1" parent="1">
          <mxGeometry x="20" y="-10" width="180" height="180" as="geometry" />
        </mxCell>
        <mxCell id="_r1k7gh4F4Ipt6apbIus-80" value="" style="shape=partialRectangle;collapsible=0;dropTarget=0;pointerEvents=0;fillColor=none;top=0;left=0;bottom=0;right=0;points=[[0,0.5],[1,0.5]];portConstraint=eastwest;" vertex="1" parent="_r1k7gh4F4Ipt6apbIus-79">
          <mxGeometry y="30" width="180" height="80" as="geometry" />
        </mxCell>
        <mxCell id="_r1k7gh4F4Ipt6apbIus-81" value="PK" style="shape=partialRectangle;connectable=0;fillColor=none;top=0;left=0;bottom=0;right=0;fontStyle=1;overflow=hidden;" vertex="1" parent="_r1k7gh4F4Ipt6apbIus-80">
          <mxGeometry width="60" height="80" as="geometry" />
        </mxCell>
        <mxCell id="_r1k7gh4F4Ipt6apbIus-82" value="&#xa;job_title&#xa;min_salary&#xa;max_salary" style="shape=partialRectangle;connectable=0;fillColor=none;top=0;left=0;bottom=0;right=0;align=left;spacingLeft=6;fontStyle=5;overflow=hidden;" vertex="1" parent="_r1k7gh4F4Ipt6apbIus-80">
          <mxGeometry x="60" width="120" height="80" as="geometry" />
        </mxCell>
        <mxCell id="_r1k7gh4F4Ipt6apbIus-86" value="" style="shape=partialRectangle;collapsible=0;dropTarget=0;pointerEvents=0;fillColor=none;top=0;left=0;bottom=0;right=0;points=[[0,0.5],[1,0.5]];portConstraint=eastwest;" vertex="1" parent="_r1k7gh4F4Ipt6apbIus-79">
          <mxGeometry y="110" width="180" height="30" as="geometry" />
        </mxCell>
        <mxCell id="_r1k7gh4F4Ipt6apbIus-87" value="" style="shape=partialRectangle;connectable=0;fillColor=none;top=0;left=0;bottom=0;right=0;editable=1;overflow=hidden;" vertex="1" parent="_r1k7gh4F4Ipt6apbIus-86">
          <mxGeometry width="60" height="30" as="geometry" />
        </mxCell>
        <mxCell id="_r1k7gh4F4Ipt6apbIus-88" value="" style="shape=partialRectangle;connectable=0;fillColor=none;top=0;left=0;bottom=0;right=0;align=left;spacingLeft=6;overflow=hidden;" vertex="1" parent="_r1k7gh4F4Ipt6apbIus-86">
          <mxGeometry x="60" width="120" height="30" as="geometry" />
        </mxCell>
        <mxCell id="_r1k7gh4F4Ipt6apbIus-89" value="" style="shape=partialRectangle;collapsible=0;dropTarget=0;pointerEvents=0;fillColor=none;top=0;left=0;bottom=0;right=0;points=[[0,0.5],[1,0.5]];portConstraint=eastwest;" vertex="1" parent="_r1k7gh4F4Ipt6apbIus-79">
          <mxGeometry y="140" width="180" height="30" as="geometry" />
        </mxCell>
        <mxCell id="_r1k7gh4F4Ipt6apbIus-90" value="" style="shape=partialRectangle;connectable=0;fillColor=none;top=0;left=0;bottom=0;right=0;editable=1;overflow=hidden;" vertex="1" parent="_r1k7gh4F4Ipt6apbIus-89">
          <mxGeometry width="60" height="30" as="geometry" />
        </mxCell>
        <mxCell id="_r1k7gh4F4Ipt6apbIus-91" value="" style="shape=partialRectangle;connectable=0;fillColor=none;top=0;left=0;bottom=0;right=0;align=left;spacingLeft=6;overflow=hidden;" vertex="1" parent="_r1k7gh4F4Ipt6apbIus-89">
          <mxGeometry x="60" width="120" height="30" as="geometry" />
        </mxCell>
        <mxCell id="_r1k7gh4F4Ipt6apbIus-94" style="edgeStyle=orthogonalEdgeStyle;rounded=0;orthogonalLoop=1;jettySize=auto;html=1;" edge="1" parent="1" source="_r1k7gh4F4Ipt6apbIus-54" target="_r1k7gh4F4Ipt6apbIus-80">
          <mxGeometry relative="1" as="geometry" />
        </mxCell>
        <mxCell id="_r1k7gh4F4Ipt6apbIus-98" value="" style="endArrow=classic;html=1;entryX=0.558;entryY=-0.007;entryDx=0;entryDy=0;entryPerimeter=0;exitX=1.014;exitY=0.639;exitDx=0;exitDy=0;exitPerimeter=0;" edge="1" parent="1" source="_r1k7gh4F4Ipt6apbIus-41" target="_r1k7gh4F4Ipt6apbIus-27">
          <mxGeometry width="50" height="50" relative="1" as="geometry">
            <mxPoint x="520" y="-410" as="sourcePoint" />
            <mxPoint x="570" y="-460" as="targetPoint" />
          </mxGeometry>
        </mxCell>
        <mxCell id="_r1k7gh4F4Ipt6apbIus-99" value="" style="endArrow=classic;html=1;entryX=0.5;entryY=0;entryDx=0;entryDy=0;" edge="1" parent="1" target="_r1k7gh4F4Ipt6apbIus-14">
          <mxGeometry width="50" height="50" relative="1" as="geometry">
            <mxPoint x="680" y="-120" as="sourcePoint" />
            <mxPoint x="730" y="-170" as="targetPoint" />
          </mxGeometry>
        </mxCell>
        <mxCell id="_r1k7gh4F4Ipt6apbIus-100" value="" style="endArrow=classic;html=1;entryX=1;entryY=0.5;entryDx=0;entryDy=0;exitX=0.5;exitY=1;exitDx=0;exitDy=0;" edge="1" parent="1" source="_r1k7gh4F4Ipt6apbIus-14" target="_r1k7gh4F4Ipt6apbIus-2">
          <mxGeometry width="50" height="50" relative="1" as="geometry">
            <mxPoint x="610" y="190" as="sourcePoint" />
            <mxPoint x="660" y="140" as="targetPoint" />
          </mxGeometry>
        </mxCell>
        <mxCell id="_r1k7gh4F4Ipt6apbIus-101" value="" style="endArrow=classic;html=1;exitX=0.5;exitY=0;exitDx=0;exitDy=0;" edge="1" parent="1" source="_r1k7gh4F4Ipt6apbIus-53">
          <mxGeometry width="50" height="50" relative="1" as="geometry">
            <mxPoint x="330" y="-260" as="sourcePoint" />
            <mxPoint x="380" y="-310" as="targetPoint" />
          </mxGeometry>
        </mxCell>
        <mxCell id="_r1k7gh4F4Ipt6apbIus-102" value="" style="endArrow=classic;html=1;exitX=0.5;exitY=0;exitDx=0;exitDy=0;entryX=0;entryY=0.5;entryDx=0;entryDy=0;" edge="1" parent="1" source="_r1k7gh4F4Ipt6apbIus-66" target="_r1k7gh4F4Ipt6apbIus-41">
          <mxGeometry width="50" height="50" relative="1" as="geometry">
            <mxPoint x="150" y="-370" as="sourcePoint" />
            <mxPoint x="200" y="-420" as="targetPoint" />
          </mxGeometry>
        </mxCell>
        <mxCell id="_r1k7gh4F4Ipt6apbIus-103" value="" style="endArrow=classic;html=1;entryX=0;entryY=0.5;entryDx=0;entryDy=0;exitX=1;exitY=0.5;exitDx=0;exitDy=0;" edge="1" parent="1" source="_r1k7gh4F4Ipt6apbIus-67" target="_r1k7gh4F4Ipt6apbIus-54">
          <mxGeometry width="50" height="50" relative="1" as="geometry">
            <mxPoint x="240" y="-190" as="sourcePoint" />
            <mxPoint x="290" y="-240" as="targetPoint" />
          </mxGeometry>
        </mxCell>
        <mxCell id="_r1k7gh4F4Ipt6apbIus-104" value="" style="endArrow=classic;html=1;entryX=0.5;entryY=0;entryDx=0;entryDy=0;exitX=0.5;exitY=1;exitDx=0;exitDy=0;" edge="1" parent="1" source="_r1k7gh4F4Ipt6apbIus-66" target="_r1k7gh4F4Ipt6apbIus-79">
          <mxGeometry width="50" height="50" relative="1" as="geometry">
            <mxPoint x="100" y="-80" as="sourcePoint" />
            <mxPoint x="150" y="-130" as="targetPoint" />
          </mxGeometry>
        </mxCell>
        <mxCell id="_r1k7gh4F4Ipt6apbIus-105" value="" style="endArrow=classic;html=1;exitX=1;exitY=0.5;exitDx=0;exitDy=0;" edge="1" parent="1" source="_r1k7gh4F4Ipt6apbIus-54">
          <mxGeometry width="50" height="50" relative="1" as="geometry">
            <mxPoint x="490" y="-120" as="sourcePoint" />
            <mxPoint x="500" y="-40" as="targetPoint" />
          </mxGeometry>
        </mxCell>
        <mxCell id="_r1k7gh4F4Ipt6apbIus-106" value="" style="endArrow=classic;html=1;" edge="1" parent="1" target="_r1k7gh4F4Ipt6apbIus-57">
          <mxGeometry width="50" height="50" relative="1" as="geometry">
            <mxPoint x="500" y="-40" as="sourcePoint" />
            <mxPoint x="550" y="-70" as="targetPoint" />
          </mxGeometry>
        </mxCell>
        <mxCell id="_r1k7gh4F4Ipt6apbIus-108" value="&lt;font style=&quot;font-size: 34px&quot;&gt;HR&lt;/font&gt;" style="text;html=1;align=center;verticalAlign=middle;resizable=0;points=[];autosize=1;" vertex="1" parent="1">
          <mxGeometry x="95" y="-655" width="60" height="30" as="geometry" />
        </mxCell>
        <mxCell id="_r1k7gh4F4Ipt6apbIus-110" value="&lt;font style=&quot;font-size: 18px&quot;&gt;ILAN SIMON TRUTNER&lt;/font&gt;" style="text;html=1;align=center;verticalAlign=middle;resizable=0;points=[];autosize=1;" vertex="1" parent="1">
          <mxGeometry x="30" y="-600" width="210" height="20" as="geometry" />
        </mxCell>
        <mxCell id="_r1k7gh4F4Ipt6apbIus-111" value="&lt;font style=&quot;font-size: 19px&quot;&gt;STUDENT NB: 2067744&lt;/font&gt;" style="text;html=1;align=center;verticalAlign=middle;resizable=0;points=[];autosize=1;" vertex="1" parent="1">
          <mxGeometry x="10" y="-530" width="220" height="20" as="geometry" />
        </mxCell>
      </root>
    </mxGraphModel>
  </diagram>
</mxfile>
